WARNING: Could not open file 'C:\Users\Jakub\Desktop\Europe_polar_stereographic_Caucasus_Urals_boundary3.svg.png' for embedding. The raster image will be kept as a reference but might be invalid. (Exception details: <urlopen error unknown url type: c>)
<svg width="700" height="545" version="1.1" viewBox="0 0 700 545" xmlns="http://www.w3.org/2000/svg" xmlns:xlink="http://www.w3.org/1999/xlink"><image width="700" height="545" preserveAspectRatio="none" xlink:href="C:\Users\Jakub\Desktop\Europe_polar_stereographic_Caucasus_Urals_boundary3.svg.png"/><g stroke="#000" stroke-width="1px"><path d="m425.2 299.35 4.6186 3.7526 5.7733-0.57733 1.1547 4.9073-0.57733 4.0413 3.464-1.4433 7.2166 16.165-4.0413 4.6186 0.57733 4.0413 2.598-0.57733 1.4433 10.103 4.0413 1.732 0.28866 2.598-0.28866 2.3093-1.4433 2.3093h-2.3093l-4.6186 10.103 2.0206 4.6186 8.0826 2.598 5.196 6.3506 4.0413 2.8866 10.681-6.062 3.7526-3.7526 8.66-1.4433 7.5053 1.1547 3.7526 7.2166 4.0413 3.464 3.464 2.8867-1.1547 2.8866-4.6186 4.9073-2.8866 6.928s-0.28866 2.3093 1.1547 2.3093h7.794l1.732-5.196 2.598-9.2373 4.0413-3.7526 8.3713-0.28867 6.928 0.28867h5.4846l-2.598 5.196-5.196 4.0413 5.7733-0.86599 4.9073 1.1547 2.0207 5.196-0.28867 2.8867 4.33-2.0207 2.0207-5.4846 3.464-2.3093 2.0207-2.598 4.0413-2.598 2.598-1.1547 2.3093-4.0413-3.1753 0.86599-4.6186 1.1547-2.8867 2.0206-5.196 1.1547-3.464-3.7526-0.28867-4.0413 8.0826-8.0826s2.3093-0.86599 3.464-1.732c1.1547-0.86599 5.196-4.9073 5.196-4.9073l2.3093-3.464s2.598-1.732 3.7526-2.3093 5.4846-3.1753 5.4846-3.1753l2.0206 1.1547-2.8866 5.7733-5.7733 4.33 7.794 2.3093-4.0413 4.0413-1.732 8.0826-2.8866 1.1547 1.732 3.464 5.196 0.28867 4.9073-0.28867 10.969 3.464 9.2373 3.7526 8.9486-0.57733 12.124 8.66 1.1547 6.6393 11.258-5.7733 9.8146 5.4846 14.145 2.8866 10.103-1.4433 4.0413 3.1753 4.33 1.4433 3.1753-9.526 4.9073-4.9073 4.6186-0.57733 0.57733 7.5053 8.9486-0.28866-6.062-24.248 4.9073-3.464-8.3713 0.866-16.454-7.794-14.722-4.9073-4.9073-9.526-8.0826-2.0206-4.33-14.722 5.4846-7.2166 7.2166-17.32 4.9073-6.6393 7.794-0.866 3.1753-5.196 7.5053 4.6186 2.598 7.2166 3.7526 3.1753-8.9486 4.33-3.464 5.196v4.33l6.6393 0.866-2.8866 4.0413-4.9073-0.86599-0.28867 3.1753 5.7733-0.57733 2.598 1.732 6.928 5.4846 4.33-1.732 1.732 1.732 8.9486-1.4433 0.57734 6.3506 4.9073 3.464 0.28867-8.0826 3.1753-2.0206-0.30191-341.49-161.64-0.28867-0.57733 20.207-12.413 29.444-13.567 73.61-47.63 18.186-19.629 1.732-6.3506 8.3713 0.86599 10.103 6.6393 5.196 1.4433 14.722 7.5053 18.763 7.2166 8.9486 3.464 2.8867-10.681 28.867-27.135 14.433-6.6393 24.537z" fill="#f00"/><path d="m111.71 544.42c2.0207 0 8.66-7.5053 8.66-7.5053l-3.464-4.33 9.8146-14.433 6.6393-1.732 4.9073-6.062 16.454-2.3093 12.413-3.464 12.124-7.2166 1.1547-6.3506 6.3506-2.598 2.3093 8.3713 15.877 7.794 9.2373 3.464 7.5053-0.28867 11.835-3.464 12.124 0.28866 6.062-4.33 31.753 1.4433 8.9486 4.9073 12.413-1.1547 15.877 2.0207 5.7733 1.1547 8.66-4.6186 5.4846 3.464 1.1547 6.062 6.928-3.464-0.28867 7.2166-7.5053 1.1547 2.8866 4.6186 3.464 6.062-1.732 7.2166-4.9073 4.6186-2.3093 3.1753z" fill="#000080"/><path d="m333.99 318.98 4.33 4.33-2.598 6.6393-3.7526 7.2166-3.464-0.57733-2.0207 6.062-2.3093 4.9073 3.1753 4.6186-0.866 3.7526-0.28866 6.062 9.8146 7.794-4.33 15.588-3.7526 0.866-6.3506 8.3713-2.598 3.1753 4.33-0.866 0.86599 5.7733-1.4433 3.464-0.28866 6.3506v6.6393l0.57733 6.3506 3.464 0.28867-12.413 9.2373-12.701-6.928-9.8146-1.1547-4.9073 3.464 0.57733 7.2166-14.433-4.0413-3.464-4.9073-5.196-0.28866-6.928-2.0207-10.969-10.969 5.7733-4.33 8.0826-20.495 1.4433-6.3506-3.7526-4.0413-0.28866-8.3713-4.9073-6.062-9.8146-5.7733s1.1547-2.3093 2.3093-2.8866-1.4433-3.7526-1.4433-3.7526l5.196-2.8866 11.258 6.3506 9.526 3.464-1.4433-8.3713-1.4433-5.7733 4.0413 1.4433 4.33 6.3506 7.794 0.866-2.0207-3.1753 6.928-2.598 4.6186-2.8866 4.9073-7.2166 5.196 0.86599 12.99-8.9486 4.9073-11.258 2.598 4.6186-0.57733 6.6393 5.4846-5.196-3.1753-3.7526 5.7733-4.33z" fill="#ff0"/><path d="m324.17 402.69-1.1547 22.805 3.464 0.28867 10.392-4.9073 11.835 9.526 5.4846 14.722 18.763 17.031 14.722 9.526 10.103 11.547-0.86599 12.124-14.722 3.1753-15.299-0.57733-4.6186 2.3093 5.196 6.928 10.392 3.1753 8.9486 5.196 3.464 0.57733 0.866-7.794s-2.8866-4.6186-1.4433-6.062c1.4433-1.4433 3.1753-2.598 3.1753-2.598h6.928l3.464-6.062s-1.732-3.464 0.28867-4.6186c2.0206-1.1547 4.9073-2.0207 4.9073-2.0207v-4.9073l-8.0826-3.7526 6.062-9.2373 12.124 6.928 2.8866-3.464-8.66-6.062-17.609-8.66 3.1753-3.7526-9.8146-2.0206-7.2166-4.33-3.7526-11.835-9.8146-8.9486 0.57733-11.547s-2.598-4.33-1.1547-4.9073c1.4433-0.57733 8.66-0.86599 8.66-0.86599l2.8866-8.66-9.8146-3.464-2.8867-4.6186-13.279 3.1753-2.598 5.196-5.196-1.4433-3.464 4.33-4.33-2.598-1.1547-2.8866-5.196 3.7526z" fill="#f0f"/><path d="m375.84 409.62 2.8866-8.66 19.629-4.9073 10.103 10.681 7.5053-0.57733 11.835-3.7526 9.8146 10.103 4.9073 6.062 6.928-1.1547 0.57733 5.7733 2.0207 10.392 2.8866 3.1753-2.8866 5.196 1.4433 4.6186 5.196 7.5053 28.578-6.3506 2.3093 9.2373-4.0413 15.011 2.598 25.114 22.227 26.557-9.8146 12.99-26.846-3.464-31.176-17.031-11.835-30.887-5.196-25.114-0.866-10.392-34.062-18.475-6.062-16.165-6.062 4.6186-2.8866-6.3506z" fill="#00d400"/><path d="m349 305.12 9.8146 1.1547 10.392 4.0413 3.7526-10.103-2.0207-7.5053-8.9486 3.1753 0.28866-13.279 2.8867-8.9486 7.5053-19.052 2.3093-17.031-0.866-23.093 7.794-4.33 4.6186-12.413 4.33-17.031 11.835-16.165 7.2166-4.9073 8.0826 3.1753 10.103-14.722 10.392-0.28866 6.062-4.9073-17.897-10.392-23.959 11.258-15.588 19.052-9.8146 19.629-5.7733 22.516-21.073 6.6393-15.877 22.227 2.0207 26.846 8.0826 10.969 19.341-8.9486 4.9073 2.0207-5.4846 15.011-7.5053-2.598-6.3506 8.3713-1.732 10.969z" fill="#00aad4"/></g></svg>
